FFmpeg version SVN-r25716, Copyright (c) 2000-2010 the FFmpeg developers  built on Nov 10 2010 12:23:18 with gcc 4.1.2 20080704 (Red Hat 4.1.2-48)  configuration: --enable-libmp3lame --enable-shared --disable-mmx --arch=x86_64  libavutil     50.33. 0 / 50.33. 0  libavcore      0.12. 1 /  0.12. 1  libavcodec    52.94. 4 / 52.94. 4  libavformat   52.84. 0 / 52.84. 0  libavdevice   52. 2. 2 / 52. 2. 2  libavfilter    1.59. 0 /  1.59. 0  libswscale     0.12. 0 /  0.12. 0Seems stream 0 codec frame rate differs from container frame rate: 1200.00 (1200/1) -> 5.00 (5/1)Input #0, mov,mp4,m4a,3gp,3g2,mj2, from '/RAID10/data/converted_video_files/8102.mov':  Metadata:    major_brand     : qt      minor_version   : 537199360    compatible_brands: qt    Duration: 00:00:53.60, start: 0.000000, bitrate: 1039 kb/s    Stream #0.0(eng): Video: h264, yuv420p, 600x418, 1039 kb/s, 5 fps, 5 tbr, 600 tbn, 1200 tbc[buffer @ 0x1ded8480] w:600 h:418 pixfmt:yuv420pOutput #0, flv, to '/RAID10/data/converted_video_files/8102.flv':  Metadata:    encoder         : Lavf52.84.0    Stream #0.0(eng): Video: flv, yuv420p, 600x418, q=2-31, 600 kb/s, 1k tbn, 24 tbcStream mapping:  Stream #0.0 -> #0.0Press [q] to stop encodingframe=   28 fps=  0 q=17.2 size=     296kB time=5.46 bitrate= 443.5kbits/s    frame=   57 fps= 56 q=12.2 size=     470kB time=11.25 bitrate= 342.6kbits/s    frame=   85 fps= 56 q=9.8 size=     672kB time=16.83 bitrate= 326.8kbits/s    frame=  112 fps= 55 q=9.3 size=     895kB time=22.25 bitrate= 329.7kbits/s    frame=  139 fps= 55 q=8.6 size=    1140kB time=27.62 bitrate= 337.9kbits/s    frame=  166 fps= 54 q=6.9 size=    1405kB time=33.04 bitrate= 348.3kbits/s    frame=  191 fps= 54 q=5.9 size=    1668kB time=38.04 bitrate= 359.1kbits/s    frame=  216 fps= 53 q=6.3 size=    1958kB time=43.04 bitrate= 372.7kbits/s    frame=  242 fps= 53 q=6.0 size=    2255kB time=48.25 bitrate= 382.9kbits/s    frame=  268 fps= 53 q=4.9 Lsize=    2580kB time=53.46 bitrate= 395.3kbits/s    video:2575kB audio:0kB global headers:0kB muxing overhead 0.170563%